<svg width="307" height="199" viewBox="0 0 307 199" fill="none" xmlns="http://www.w3.org/2000/svg">
<path fill-rule="evenodd" clip-rule="evenodd" d="M98.1174 121.691C97.9764 121.78 97.8464 121.862 97.7387 122.036C97.5622 122.321 97.5367 122.536 97.5409 122.871C97.5446 123.171 97.5864 123.349 97.7168 123.619C97.8571 123.91 98.0059 124.044 98.2388 124.254C98.2479 124.262 98.2572 124.27 98.2666 124.279C98.5815 124.563 98.7954 124.695 99.1902 124.85C99.5023 124.973 99.6912 125.026 100.026 125.048C100.482 125.079 100.78 124.967 101.149 124.83C101.264 124.787 101.386 124.741 101.521 124.696C102.075 124.514 102.422 124.335 102.859 124.109C102.995 124.038 103.14 123.964 103.302 123.883C103.848 123.611 104.244 123.378 104.655 123.135C104.981 122.943 105.317 122.746 105.743 122.519C105.947 122.411 106.125 122.332 106.294 122.257C106.577 122.132 106.835 122.018 107.15 121.793C107.419 121.603 107.558 121.475 107.797 121.256L107.81 121.244C108.208 120.878 108.432 120.666 108.755 120.232C108.92 120.012 109.018 119.84 109.127 119.649C109.186 119.545 109.249 119.435 109.327 119.309C109.406 119.182 109.457 119.061 109.506 118.947C109.597 118.737 109.677 118.548 109.899 118.385C110.081 118.25 110.328 118.25 110.546 118.25C110.761 118.25 110.949 118.25 111.02 118.121C111.129 117.923 110.875 117.641 110.616 117.355C110.535 117.266 110.453 117.176 110.382 117.088C110.044 116.666 109.798 116.474 109.371 116.142C109.283 116.073 109.202 116.008 109.125 115.946C108.762 115.654 108.489 115.433 107.986 115.284C107.691 115.197 107.468 115.195 107.219 115.192C107.085 115.191 106.942 115.19 106.776 115.175C106.61 115.16 106.47 115.14 106.337 115.121C106.093 115.086 105.874 115.054 105.567 115.065C104.817 115.09 104.398 115.237 103.698 115.505C103.578 115.55 103.466 115.589 103.36 115.626C102.954 115.768 102.633 115.879 102.29 116.23C102.142 116.382 102.064 116.559 101.99 116.725C101.916 116.891 101.848 117.046 101.719 117.154L101.059 117.704C100.892 117.843 100.795 118.038 100.687 118.257C100.628 118.375 100.566 118.501 100.487 118.627L99.9156 119.551C99.8371 119.678 99.7745 119.787 99.7153 119.891C99.6061 120.083 99.5084 120.254 99.3439 120.475C99.0205 120.908 98.7968 121.121 98.3984 121.486C98.3021 121.574 98.2075 121.634 98.1174 121.691ZM104.006 120.166C104.419 120.069 104.675 119.656 104.577 119.243C104.48 118.83 104.067 118.574 103.654 118.671C103.241 118.768 102.985 119.182 103.082 119.595C103.179 120.008 103.593 120.264 104.006 120.166Z" fill="#4DC13A"/>
<path d="M102.026 115.109L96.8151 121.464L97.6285 116.538L97.8263 115.703L98.1122 115.241L98.7718 114.691L99.5194 114.515L100.267 114.339L101.015 114.163L101.85 114.361L102.312 114.647L102.774 114.933L102.026 115.109Z" fill="#4DC13A" stroke="#4DC13A" stroke-linecap="round" stroke-linejoin="round"/>
<path d="M98.2002 125.597C98.1669 125.531 98.1567 125.488 98.1567 125.488C98.1567 125.488 98.1714 125.526 98.2002 125.597C98.3367 125.865 98.8611 126.506 100.664 126.082C102.906 125.554 105.259 123.817 105.259 123.817C105.259 123.817 107.525 135.119 117.618 132.744C130.851 129.629 123.972 117.834 123.972 117.834L127.073 115.921C127.073 115.921 129.181 117.95 130.052 119.362C130.924 120.775 131.537 123.155 131.537 123.155C131.537 123.155 131.947 128.333 130.68 131.248C128.591 136.052 125.032 138.028 119.949 139.297C114.349 140.694 110.176 139.719 105.458 136.395C101.556 133.646 98.59 126.559 98.2002 125.597Z" fill="#4DC13A"/>
<path d="M98.1567 125.488C98.1567 125.488 98.4207 126.61 100.664 126.082C102.906 125.554 105.259 123.817 105.259 123.817C105.259 123.817 107.525 135.119 117.618 132.744C130.851 129.629 123.972 117.834 123.972 117.834L127.073 115.921C127.073 115.921 129.181 117.95 130.052 119.362C130.924 120.775 131.537 123.155 131.537 123.155C131.537 123.155 131.947 128.333 130.68 131.248C128.591 136.052 125.032 138.028 119.949 139.297C114.349 140.694 110.176 139.719 105.458 136.395C101.268 133.443 98.1567 125.488 98.1567 125.488Z" stroke="#4DC13A" stroke-linecap="round" stroke-linejoin="round"/>
<path d="M109.202 121.819L109.202 121.819L109.202 121.819C109.289 121.785 109.365 121.727 109.421 121.651L109.421 121.651L109.421 121.651L109.423 121.649L109.428 121.642L109.45 121.612C109.47 121.586 109.498 121.548 109.534 121.501C109.607 121.406 109.708 121.275 109.826 121.127C110.066 120.828 110.359 120.478 110.603 120.235C110.899 119.941 111.298 119.552 111.625 119.236C111.788 119.079 111.932 118.939 112.036 118.84L112.158 118.722L112.171 118.71L112.181 118.703C112.21 118.684 112.254 118.656 112.31 118.621C112.421 118.553 112.577 118.462 112.755 118.374C113.136 118.183 113.52 118.05 113.776 118.063C113.88 118.068 114.008 118.121 114.16 118.262C114.313 118.403 114.457 118.601 114.584 118.822C114.71 119.04 114.808 119.259 114.875 119.427C114.909 119.51 114.934 119.578 114.95 119.625C114.958 119.649 114.964 119.666 114.968 119.678L114.972 119.69L114.973 119.692L114.973 119.692L114.973 119.692L114.973 119.692L114.973 119.692L114.978 119.707L114.978 119.707L114.978 119.707L114.978 119.707L114.978 119.708L114.978 119.708L114.981 119.716C114.983 119.724 114.987 119.736 114.993 119.753C115.003 119.787 115.018 119.837 115.034 119.899C115.068 120.025 115.105 120.193 115.127 120.37C115.148 120.551 115.15 120.718 115.126 120.85C115.104 120.966 115.07 121.02 115.046 121.045C115.038 121.045 115.027 121.045 115.009 121.042C114.927 121.031 114.826 120.996 114.663 120.935C114.655 120.932 114.647 120.929 114.639 120.926C114.509 120.877 114.308 120.802 114.114 120.785C114 120.775 113.856 120.781 113.708 120.842C113.552 120.906 113.43 121.017 113.344 121.156C113.244 121.318 113.209 121.503 113.242 121.686C113.273 121.856 113.358 121.994 113.443 122.095C113.609 122.292 113.85 122.438 114.08 122.538C114.319 122.642 114.593 122.717 114.866 122.746C115.134 122.774 115.436 122.762 115.711 122.654C115.975 122.551 116.17 122.359 116.309 122.179C116.45 121.996 116.557 121.791 116.637 121.611C116.717 121.429 116.775 121.258 116.813 121.133C116.833 121.07 116.847 121.018 116.857 120.98C116.862 120.962 116.866 120.947 116.868 120.936L116.872 120.922L116.873 120.918L116.873 120.916L116.873 120.916L116.873 120.916C116.873 120.915 116.873 120.915 116.386 120.803L116.873 120.915C116.89 120.841 116.89 120.763 116.873 120.689L116.433 118.823L116.433 118.821L116.433 118.821L116.433 118.823L116.432 118.819C116.431 118.813 116.429 118.802 116.427 118.786C116.421 118.754 116.414 118.703 116.408 118.636C116.397 118.501 116.392 118.302 116.42 118.061C116.476 117.588 116.662 116.949 117.193 116.306C117.204 116.295 117.22 116.279 117.242 116.259C117.287 116.218 117.353 116.157 117.436 116.085C117.603 115.939 117.835 115.749 118.098 115.567C118.362 115.384 118.644 115.218 118.912 115.111C119.187 115.002 119.397 114.976 119.542 115.005C119.786 115.053 119.96 115.232 120.087 115.474C120.149 115.591 120.19 115.707 120.216 115.794C120.228 115.837 120.237 115.871 120.242 115.893C120.244 115.904 120.246 115.912 120.246 115.916L120.247 115.919L120.247 115.918L120.247 115.918L120.247 115.917C120.247 115.917 120.247 115.917 120.74 115.834M109.202 121.819L120.452 116.242M109.202 121.819L109.201 121.82L109.196 121.821L109.177 121.829C109.16 121.836 109.134 121.846 109.101 121.86C109.035 121.887 108.939 121.928 108.823 121.979C108.59 122.081 108.28 122.226 107.966 122.394C107.65 122.563 107.344 122.749 107.113 122.933C106.998 123.024 106.911 123.107 106.853 123.178C106.824 123.213 106.805 123.241 106.794 123.263C106.782 123.284 106.779 123.294 106.779 123.294C106.756 123.393 106.761 123.617 106.825 123.967C106.885 124.296 106.984 124.67 107.093 125.03C107.201 125.388 107.316 125.721 107.404 125.966C107.447 126.089 107.484 126.188 107.51 126.257C107.523 126.291 107.533 126.317 107.54 126.335L107.548 126.354L107.552 126.363C107.556 126.374 107.564 126.392 107.575 126.415C107.596 126.462 107.63 126.533 107.675 126.623C107.767 126.804 107.907 127.064 108.099 127.373C108.484 127.99 109.074 128.793 109.89 129.538C111.509 131.018 114.028 132.286 117.701 131.421C119.973 130.887 121.485 130.052 122.488 129.128C123.489 128.207 124.006 127.176 124.255 126.209C124.506 125.236 124.487 124.321 124.404 123.645C124.362 123.308 124.304 123.034 124.258 122.846C124.235 122.752 124.215 122.68 124.201 122.633C124.194 122.61 124.188 122.593 124.185 122.582L124.181 122.571L124.181 122.571L109.202 121.819ZM120.74 115.834C120.452 116.242 120.452 116.242 120.452 116.242M120.74 115.834L120.247 115.917C120.247 115.918 120.247 115.918 120.247 115.919C120.27 116.05 120.343 116.166 120.452 116.242M120.74 115.834L120.452 116.242L120.452 116.242M120.74 115.834C120.74 115.834 120.547 114.695 119.64 114.514M120.74 115.834C120.74 115.834 124.522 118.494 124.654 122.408L119.64 114.514M119.64 114.514C118.52 114.291 116.825 115.966 116.825 115.966L119.64 114.514ZM115.056 121.044C115.056 121.044 115.055 121.045 115.053 121.045C115.055 121.044 115.056 121.044 115.056 121.044Z" fill="#4DC13A" stroke="#4DC13A" stroke-linecap="round" stroke-linejoin="round"/>
<path d="M96.0456 123.223C96.0456 123.223 96.7206 125.482 97.2992 126.874C98.193 129.023 98.8041 130.204 100.114 132.129C101.404 134.024 103.712 136.33 104.816 137.391C104.733 137.379 104.643 137.366 104.547 137.351C104.371 137.324 104.173 137.292 103.959 137.255M96.0456 123.223C96.0456 123.223 94.0937 122.395 93.2529 123.092C92.5794 123.649 92.5713 125.225 92.5713 125.225M96.0456 123.223L95.5665 123.367L95.5666 123.367L95.5667 123.367L95.5671 123.368L95.5686 123.374L95.5746 123.393L95.5973 123.468C95.6083 123.505 95.6221 123.55 95.6385 123.603M96.0456 123.223C95.8503 123.684 95.8504 123.684 95.8505 123.684L95.848 123.683L95.8351 123.677C95.8231 123.673 95.8044 123.665 95.7796 123.655C95.744 123.642 95.6963 123.624 95.6385 123.603M92.5713 125.225C92.5713 125.225 92.7937 125.898 92.8353 126.346C92.893 126.969 92.6526 127.418 92.4086 127.873C92.1807 128.299 91.9497 128.731 91.9559 129.315C91.9653 130.215 92.1325 130.729 92.4837 131.558C93.1974 133.241 94.3028 133.935 95.7211 134.825C95.9804 134.987 96.2502 135.157 96.53 135.34C98.8556 136.861 102.846 137.6 104.584 137.862C104.558 137.837 104.531 137.811 104.502 137.784C104.345 137.632 104.162 137.455 103.959 137.255M92.5713 125.225C93.0713 125.227 93.0713 125.227 93.0713 125.227L93.0713 125.226L93.0715 125.216C93.0717 125.207 93.072 125.193 93.0727 125.173C93.0729 125.167 93.0732 125.161 93.0734 125.154M92.5713 125.225L93.0461 125.068L93.0462 125.068L93.0463 125.068L93.0465 125.069L93.0471 125.071L93.0494 125.078L93.0573 125.102C93.0616 125.116 93.067 125.133 93.0734 125.154M103.959 137.255C103.691 136.991 103.389 136.688 103.068 136.36C101.952 135.213 100.595 133.725 99.7008 132.41C98.3693 130.454 97.7426 129.242 96.8375 127.066C96.5403 126.351 96.2219 125.423 95.9801 124.682C95.8586 124.31 95.7554 123.981 95.6825 123.746C95.6663 123.694 95.6516 123.646 95.6385 123.603M103.959 137.255C103.459 137.169 102.867 137.057 102.23 136.916C100.392 136.506 98.2411 135.862 96.8038 134.921C96.5081 134.728 96.2288 134.552 95.9652 134.386C94.5556 133.498 93.5924 132.892 92.9441 131.363C92.6063 130.566 92.4643 130.119 92.4558 129.309C92.4511 128.855 92.6277 128.525 92.8686 128.074L92.8737 128.064C93.1101 127.622 93.404 127.064 93.3331 126.3C93.3082 126.031 93.2325 125.716 93.1703 125.487C93.1382 125.368 93.1075 125.264 93.0848 125.19C93.0807 125.177 93.0769 125.165 93.0734 125.154M93.0734 125.154C93.0749 125.116 93.0775 125.066 93.0818 125.006C93.0922 124.862 93.1123 124.667 93.1511 124.459C93.1903 124.248 93.2461 124.037 93.3229 123.855C93.4014 123.669 93.4885 123.546 93.5718 123.477C93.6711 123.394 93.8337 123.334 94.0776 123.317C94.3181 123.301 94.593 123.331 94.8654 123.386C95.1349 123.441 95.3837 123.516 95.5663 123.578C95.5918 123.587 95.6159 123.595 95.6385 123.603M93.0713 125.228C93.0713 125.228 93.0713 125.228 93.0713 125.228L93.0713 125.228Z" fill="#4DC13A" stroke="#4DC13A" stroke-linecap="round" stroke-linejoin="round"/>
<path d="M119.514 141.146C118.615 141.676 117.61 142.154 116.744 142.3C113.842 142.789 111.812 142.048 110.512 141.207C110.262 141.046 110.038 140.88 109.84 140.717C110.064 140.78 110.303 140.846 110.553 140.911C111.972 141.282 113.786 141.669 115.259 141.688C116.577 141.704 118.189 141.433 119.514 141.146Z" fill="#4DC13A" stroke="#4DC13A" stroke-linecap="round" stroke-linejoin="round"/>
<path d="M6.27148 70V15.9688H23.9355C29.7988 15.9688 34.2025 17.181 37.1465 19.6055C40.1152 22.0299 41.5996 25.6172 41.5996 30.3672C41.5996 32.8906 40.8822 35.1296 39.4473 37.084C38.0124 39.0137 36.0579 40.5104 33.584 41.5742C36.5033 42.3906 38.804 43.9492 40.4863 46.25C42.1934 48.526 43.0469 51.2474 43.0469 54.4141C43.0469 59.263 41.4759 63.0729 38.334 65.8438C35.1921 68.6146 30.7513 70 25.0117 70H6.27148ZM13.3965 44.7285V64.1738H25.1602C28.4753 64.1738 31.0853 63.3203 32.9902 61.6133C34.9199 59.8815 35.8848 57.5065 35.8848 54.4883C35.8848 47.9818 32.347 44.7285 25.2715 44.7285H13.3965ZM13.3965 39.0137H24.1582C27.2754 39.0137 29.7617 38.2344 31.6172 36.6758C33.4974 35.1172 34.4375 33.002 34.4375 30.3301C34.4375 27.3613 33.5716 25.209 31.8398 23.873C30.1081 22.5124 27.4733 21.832 23.9355 21.832H13.3965V39.0137ZM71.9551 36.0078C70.916 35.8346 69.7904 35.748 68.5781 35.748C64.0755 35.748 61.0202 37.6654 59.4121 41.5V70H52.5469V29.8477H59.2266L59.3379 34.4863C61.5892 30.8991 64.7806 29.1055 68.9121 29.1055C70.248 29.1055 71.2624 29.2786 71.9551 29.625V36.0078ZM94.2207 70.7422C88.778 70.7422 84.3496 68.9609 80.9355 65.3984C77.5215 61.8112 75.8145 57.0241 75.8145 51.0371V49.7754C75.8145 45.7923 76.569 42.2422 78.0781 39.125C79.612 35.9831 81.7396 33.5339 84.4609 31.7773C87.207 29.9961 90.1758 29.1055 93.3672 29.1055C98.5872 29.1055 102.645 30.8249 105.539 34.2637C108.434 37.7025 109.881 42.6257 109.881 49.0332V51.8906H82.6797C82.7786 55.849 83.929 59.0527 86.1309 61.502C88.3574 63.9264 91.1777 65.1387 94.5918 65.1387C97.0163 65.1387 99.0697 64.6439 100.752 63.6543C102.434 62.6647 103.906 61.3535 105.168 59.7207L109.361 62.9863C105.997 68.1569 100.95 70.7422 94.2207 70.7422ZM93.3672 34.7461C90.5964 34.7461 88.2708 35.7604 86.3906 37.7891C84.5104 39.793 83.3477 42.6133 82.9023 46.25H103.016V45.7305C102.818 42.2422 101.878 39.5456 100.195 37.6406C98.513 35.7109 96.237 34.7461 93.3672 34.7461ZM134.521 70.7422C129.079 70.7422 124.65 68.9609 121.236 65.3984C117.822 61.8112 116.115 57.0241 116.115 51.0371V49.7754C116.115 45.7923 116.87 42.2422 118.379 39.125C119.913 35.9831 122.04 33.5339 124.762 31.7773C127.508 29.9961 130.477 29.1055 133.668 29.1055C138.888 29.1055 142.945 30.8249 145.84 34.2637C148.734 37.7025 150.182 42.6257 150.182 49.0332V51.8906H122.98C123.079 55.849 124.23 59.0527 126.432 61.502C128.658 63.9264 131.479 65.1387 134.893 65.1387C137.317 65.1387 139.37 64.6439 141.053 63.6543C142.735 62.6647 144.207 61.3535 145.469 59.7207L149.662 62.9863C146.298 68.1569 141.251 70.7422 134.521 70.7422ZM133.668 34.7461C130.897 34.7461 128.572 35.7604 126.691 37.7891C124.811 39.793 123.648 42.6133 123.203 46.25H143.316V45.7305C143.118 42.2422 142.178 39.5456 140.496 37.6406C138.814 35.7109 136.538 34.7461 133.668 34.7461ZM156.49 49.5898C156.49 43.4297 157.95 38.4818 160.869 34.7461C163.788 30.9857 167.611 29.1055 172.336 29.1055C177.036 29.1055 180.76 30.7135 183.506 33.9297V13H190.371V70H184.062L183.729 65.6953C180.982 69.0599 177.16 70.7422 172.262 70.7422C167.611 70.7422 163.813 68.8372 160.869 65.0273C157.95 61.2174 156.49 56.2448 156.49 50.1094V49.5898ZM163.355 50.3691C163.355 54.9212 164.296 58.4837 166.176 61.0566C168.056 63.6296 170.654 64.916 173.969 64.916C178.323 64.916 181.502 62.9616 183.506 59.0527V40.6094C181.452 36.8242 178.298 34.9316 174.043 34.9316C170.678 34.9316 168.056 36.2305 166.176 38.8281C164.296 41.4258 163.355 45.2728 163.355 50.3691ZM217.721 70.7422C212.278 70.7422 207.85 68.9609 204.436 65.3984C201.021 61.8112 199.314 57.0241 199.314 51.0371V49.7754C199.314 45.7923 200.069 42.2422 201.578 39.125C203.112 35.9831 205.24 33.5339 207.961 31.7773C210.707 29.9961 213.676 29.1055 216.867 29.1055C222.087 29.1055 226.145 30.8249 229.039 34.2637C231.934 37.7025 233.381 42.6257 233.381 49.0332V51.8906H206.18C206.279 55.849 207.429 59.0527 209.631 61.502C211.857 63.9264 214.678 65.1387 218.092 65.1387C220.516 65.1387 222.57 64.6439 224.252 63.6543C225.934 62.6647 227.406 61.3535 228.668 59.7207L232.861 62.9863C229.497 68.1569 224.45 70.7422 217.721 70.7422ZM216.867 34.7461C214.096 34.7461 211.771 35.7604 209.891 37.7891C208.01 39.793 206.848 42.6133 206.402 46.25H226.516V45.7305C226.318 42.2422 225.378 39.5456 223.695 37.6406C222.013 35.7109 219.737 34.7461 216.867 34.7461ZM260.768 36.0078C259.729 35.8346 258.603 35.748 257.391 35.748C252.888 35.748 249.833 37.6654 248.225 41.5V70H241.359V29.8477H248.039L248.15 34.4863C250.402 30.8991 253.593 29.1055 257.725 29.1055C259.061 29.1055 260.075 29.2786 260.768 29.625V36.0078ZM290.492 59.3496C290.492 57.4941 289.787 56.0592 288.377 55.0449C286.992 54.0059 284.555 53.1152 281.066 52.373C277.603 51.6309 274.844 50.7402 272.791 49.7012C270.762 48.6621 269.253 47.4251 268.264 45.9902C267.299 44.5553 266.816 42.8483 266.816 40.8691C266.816 37.5788 268.202 34.7956 270.973 32.5195C273.768 30.2435 277.331 29.1055 281.66 29.1055C286.212 29.1055 289.898 30.2806 292.719 32.6309C295.564 34.9811 296.986 37.987 296.986 41.6484H290.084C290.084 39.7682 289.28 38.1478 287.672 36.7871C286.089 35.4264 284.085 34.7461 281.66 34.7461C279.161 34.7461 277.207 35.2904 275.797 36.3789C274.387 37.4674 273.682 38.89 273.682 40.6465C273.682 42.304 274.337 43.5534 275.648 44.3945C276.96 45.2357 279.322 46.0397 282.736 46.8066C286.175 47.5736 288.958 48.4889 291.086 49.5527C293.214 50.6165 294.785 51.903 295.799 53.4121C296.838 54.8965 297.357 56.7148 297.357 58.8672C297.357 62.4544 295.923 65.3366 293.053 67.5137C290.183 69.666 286.46 70.7422 281.883 70.7422C278.667 70.7422 275.822 70.1732 273.348 69.0352C270.874 67.8971 268.932 66.3138 267.521 64.2852C266.136 62.2318 265.443 60.0176 265.443 57.6426H272.309C272.432 59.9434 273.348 61.7741 275.055 63.1348C276.786 64.4707 279.062 65.1387 281.883 65.1387C284.48 65.1387 286.559 64.6191 288.117 63.5801C289.701 62.5163 290.492 61.1061 290.492 59.3496Z" fill="#4DC13A"/>
<path d="M18.3398 160.801H67.1484V170H5.03906V161.562L51.7969 93.9453H5.80078V84.6875H65.2734V92.9492L18.3398 160.801ZM145.84 130.098C145.84 138.457 144.434 145.762 141.621 152.012C138.809 158.223 134.824 162.969 129.668 166.25C124.512 169.531 118.496 171.172 111.621 171.172C104.902 171.172 98.9453 169.531 93.75 166.25C88.5547 162.93 84.5117 158.223 81.6211 152.129C78.7695 145.996 77.3047 138.906 77.2266 130.859V124.707C77.2266 116.504 78.6523 109.258 81.5039 102.969C84.3555 96.6797 88.3789 91.875 93.5742 88.5547C98.8086 85.1953 104.785 83.5156 111.504 83.5156C118.34 83.5156 124.355 85.1758 129.551 88.4961C134.785 91.7773 138.809 96.5625 141.621 102.852C144.434 109.102 145.84 116.387 145.84 124.707V130.098ZM134.648 124.59C134.648 114.473 132.617 106.719 128.555 101.328C124.492 95.8984 118.809 93.1836 111.504 93.1836C104.395 93.1836 98.7891 95.8984 94.6875 101.328C90.625 106.719 88.5352 114.219 88.418 123.828V130.098C88.418 139.902 90.4688 147.617 94.5703 153.242C98.7109 158.828 104.395 161.621 111.621 161.621C118.887 161.621 124.512 158.984 128.496 153.711C132.48 148.398 134.531 140.801 134.648 130.918V124.59ZM228.281 170H216.973L174.023 104.258V170H162.715V84.6875H174.023L217.09 150.723V84.6875H228.281V170ZM296.484 130.566H259.512V160.801H302.461V170H248.262V84.6875H301.875V93.9453H259.512V121.367H296.484V130.566Z" fill="black"/>
</svg>
