<svg width="24" height="24" viewBox="0 0 24 24" fill="none" xmlns="http://www.w3.org/2000/svg">
<circle cx="12" cy="12" r="12" fill="#3F81E5"/>
<path d="M11.25 17.25C12.6345 17.25 13.9073 16.7738 14.9228 15.984L18.2197 19.281L19.2803 18.2205L15.9833 14.9235C16.7738 13.9072 17.25 12.6345 17.25 11.25C17.25 7.94175 14.5582 5.25 11.25 5.25C7.94175 5.25 5.25 7.94175 5.25 11.25C5.25 14.5582 7.94175 17.25 11.25 17.25ZM11.25 6.75C13.7318 6.75 15.75 8.76825 15.75 11.25C15.75 13.7318 13.7318 15.75 11.25 15.75C8.76825 15.75 6.75 13.7318 6.75 11.25C6.75 8.76825 8.76825 6.75 11.25 6.75Z" fill="white"/>
</svg>
